<svg width="130" height="143" viewBox="0 0 130 143" fill="none" xmlns="http://www.w3.org/2000/svg">
<path d="M88.4106 2.54394C73.5848 6.58735 59.3366 15.6369 52.5976 25.6491C45.0884 36.6241 44.7033 42.7855 50.0945 58.5741C56.2559 76.6731 55.4857 81.2942 44.5107 89.9586C39.3121 94.002 27.3744 101.126 18.1323 105.747C-2.08475 115.567 -1.12204 114.989 1.18848 117.3C3.30646 119.225 31.6103 105.747 44.7033 96.3126C49.5169 92.8468 55.1006 87.0705 57.0261 83.6047C60.2993 77.4433 60.2993 76.6731 57.0261 65.8907C55.1006 59.7293 52.9827 49.9096 52.5976 43.9408C51.8274 33.736 52.2125 32.5807 58.1813 25.8417C66.2681 16.4071 87.2554 6.39481 102.081 4.66192C108.435 3.89174 113.634 2.54394 113.634 1.58122C113.634 -0.921844 99.0005 -0.344215 88.4106 2.54394Z" fill="#431D72"/>
<path d="M111.901 16.9849C98.0377 21.7985 89.7583 30.2704 89.7583 39.5125C89.7583 45.8664 91.2986 47.9844 104.584 60.3072C122.106 76.6734 126.149 84.9527 124.609 101.704C123.453 114.412 119.795 122.884 110.36 133.281C102.081 142.523 104.007 146.952 112.671 138.48C123.068 128.468 130 112.486 130 99.0084C129.807 79.1764 126.149 72.63 102.466 51.4502C93.2241 43.1708 92.2614 37.5871 98.4228 30.8481C103.429 25.6494 116.714 19.2954 122.876 19.1029C125.379 19.1029 127.112 17.9476 127.112 16.2148C127.112 12.5564 124.609 12.5564 111.901 16.9849Z" fill="#431D72"/>
<path d="M66.8459 36.4324C65.4981 41.6311 67.4236 48.3701 70.1192 47.4074C71.2744 47.0223 72.2372 43.749 72.2372 40.2832C72.2372 33.1591 68.3863 30.271 66.8459 36.4324Z" fill="#431D72"/>
<path d="M75.125 61.463C75.125 64.5437 79.5535 73.0156 81.0938 73.0156C84.3671 73.0156 84.7522 68.9722 81.6715 64.3512C78.5908 59.5376 75.125 57.9972 75.125 61.463Z" fill="#431D72"/>
<path d="M84.3674 85.53C82.6345 87.2629 85.5227 98.2379 87.6406 98.0453C90.1437 98.0453 90.1437 86.1077 87.4481 85.1449C86.4854 84.7599 84.945 84.9524 84.3674 85.53Z" fill="#431D72"/>
<path d="M76.4727 116.337C74.3548 119.418 73.9697 121.343 75.3175 122.113C77.628 123.654 84.7521 117.685 84.7521 114.027C84.7521 109.983 80.3236 111.139 76.4727 116.337Z" fill="#431D72"/>
</svg>
