<svg width="109" height="128" viewBox="0 0 109 128" fill="none" xmlns="http://www.w3.org/2000/svg">
<path d="M100.611 1.75926C99.4148 2.66673 98.4843 4.14134 98.4843 4.82194C98.4843 5.61596 95.1609 9.47266 91.0398 13.5562C86.9188 17.6398 78.8097 27.1681 72.9605 34.8815C61.395 49.7411 62.1927 49.2874 53.2859 46.1113C50.0955 44.9769 50.0955 44.8635 52.7542 44.5232C57.407 43.8426 59.6669 40.7799 64.5855 28.7561C69.903 15.7114 70.0359 15.1443 66.8454 13.6696C62.8573 11.8547 61.2621 13.8965 56.7423 25.4666C54.4824 31.5919 51.6907 37.0367 50.6272 37.4904C49.5637 37.9441 44.2463 38.965 39.0617 39.7591C33.7443 40.5531 29.3574 41.574 29.3574 42.0277C29.3574 42.4814 25.1034 47.0187 19.9189 52.1232C14.8673 57.2276 10.7463 62.2186 11.0122 63.2395C11.5439 65.3947 30.2879 75.0365 33.2125 74.5827C34.5419 74.3559 35.3395 73.1081 35.3395 71.4066C35.3395 69.138 33.8772 67.7768 28.4268 65.1679C24.5717 63.2395 21.6471 61.4246 21.78 61.0843C21.913 60.6306 25.1034 57.5679 28.6927 54.1649L35.4725 47.9262L46.6391 51.556L57.9387 55.2993L57.6728 60.1769C57.407 62.8992 56.7423 73.5619 55.9447 83.8842C53.2859 121.317 54.0835 129.03 60.7304 127.896C62.7244 127.556 62.9903 125.287 63.3891 108.272C63.522 97.6095 64.3196 81.3887 65.2502 72.2007L66.7125 55.4127L78.5438 40.4397C85.0577 32.1591 94.3632 21.7233 99.149 17.0726C107.79 8.67863 110.05 4.93536 108.587 1.64584C107.657 -0.622818 103.27 -0.509384 100.611 1.75926Z" fill="#431D72"/>
<path d="M14.0534 16.7737C11.17 17.3812 7.83646 18.7385 7.55506 19.8965C3.31471 22.2182 1.41219 30.0953 3.10632 35.0855C4.01535 37.6774 6.86919 40.006 11.3824 41.8386C21.5823 45.9523 31.9078 37.5875 31.2994 25.6664C31.1163 19.7353 23.0639 14.8753 14.0534 16.7737Z" fill="#431D72"/>
</svg>
