<svg width="135" height="137" viewBox="0 0 135 137" fill="none" xmlns="http://www.w3.org/2000/svg">
<path d="M45.9841 3.54208C45.0569 5.52014 43.5734 12.5332 43.0171 19.3665C42.2754 26.02 41.3482 35.191 40.6065 39.6866L39.4939 47.7786L21.136 52.2742C-1.48693 57.8487 -4.45387 60.7259 5.18868 68.8179C8.71192 71.6951 19.0962 77.8091 27.997 82.1249C39.4939 87.8792 44.1297 90.9362 43.388 92.7344C42.8317 94.173 43.2026 102.984 43.9443 112.515C45.0569 124.923 46.3549 130.677 48.7656 133.195C54.8849 139.668 59.3353 137.69 75.8389 121.147L91.6008 105.322L110.886 106.401C121.641 106.94 131.469 107.12 132.767 106.581C137.588 104.962 134.621 97.23 123.681 83.9231C113.482 71.3355 112.74 69.7171 115.151 67.0197C119.601 62.3443 133.323 30.1559 132.767 26.1998C131.84 20.2656 123.681 20.9849 103.283 28.7173C92.7133 32.8533 83.2562 36.0901 82.1436 36.0901C80.8456 36.0901 74.3554 27.998 67.4944 18.1078C54.8849 -0.414032 50.0636 -3.65085 45.9841 3.54208ZM63.6003 31.7743C73.9846 48.3181 76.5806 49.7567 89.0047 45.8006C94.3823 44.1821 103.098 40.7655 108.475 38.6076C113.853 36.2699 118.303 35.0112 118.303 35.7305C118.303 38.7874 108.475 56.9496 104.21 61.8048C101.8 64.682 99.7598 67.9188 99.7598 69.1776C99.7598 70.4363 103.468 76.1907 108.104 82.1249C112.555 87.8792 116.449 93.4537 116.449 94.3528C116.449 95.252 109.773 95.4318 101.614 94.8923C84.5543 93.8134 86.0377 93.0941 69.1633 111.976C63.4148 118.809 57.8518 124.204 56.9247 124.204C55.9975 124.204 55.2558 116.111 55.2558 106.401C55.2558 96.5107 54.514 86.6204 53.5869 84.2827C52.4743 81.4056 47.0967 77.9889 35.0435 72.9539C25.7718 68.9978 18.169 65.4013 18.169 64.8618C18.169 64.3224 24.1029 62.5241 31.5203 60.7259C38.9376 59.1075 45.9841 56.59 47.653 55.1514C49.1365 53.533 50.9908 45.8006 52.2888 36.2699C53.216 27.2788 54.6995 19.906 55.2558 19.906C55.8121 20.0858 59.5207 25.3007 63.6003 31.7743Z" fill="#431D72"/>
</svg>
