<svg width="134" height="121" viewBox="0 0 134 121" fill="none" xmlns="http://www.w3.org/2000/svg">
<path d="M46.6112 1.45524C24.4779 7.45524 6.21121 24.3886 1.81121 42.6552C-1.25546 56.1219 -0.322128 77.8552 3.81121 86.3886C5.54454 89.8552 7.67787 92.6552 8.74454 92.6552C11.2779 92.6552 11.1445 90.7886 7.67787 84.2552C4.87787 79.1886 4.61121 76.7886 4.61121 60.6552C4.61121 43.5886 4.87787 42.2552 8.34454 35.0552C15.4112 20.5219 36.4779 5.98857 52.8779 3.98857C63.2779 2.78857 78.6112 5.05524 90.6112 9.45524C106.611 15.4552 120.478 30.2552 126.745 48.1219C128.878 54.3886 129.411 58.3886 129.011 67.9886C128.345 82.1219 124.878 89.8552 114.345 100.655C101.945 113.189 90.7445 117.189 68.6112 116.922C58.8779 116.922 53.1445 116.122 47.4112 114.122C39.4112 111.322 35.9445 111.455 38.6112 114.655C41.4112 117.989 55.5445 120.789 69.6779 120.789C93.4112 120.655 103.945 116.522 117.678 102.122C131.145 87.9886 136.078 71.1886 131.945 52.7886C128.078 35.0552 113.811 16.2552 98.6112 8.65524C83.6779 1.18857 59.5445 -2.14477 46.6112 1.45524Z" fill="#431D72"/>
<path d="M47.278 24.6553C39.4114 25.9886 35.678 27.8553 30.878 32.7886C24.3447 39.4553 23.1447 44.5219 26.478 51.9886C27.9447 55.3219 30.078 58.3886 31.1447 58.7886C33.0114 59.4553 33.0114 59.9886 31.278 62.3886C29.678 64.7886 29.678 65.5886 31.4114 68.5219C33.678 72.3886 40.078 77.0553 45.278 78.6553C47.1447 79.1886 50.6114 81.3219 52.878 83.4553C57.678 87.5886 68.478 91.3219 75.8114 91.3219L80.6114 91.4553L77.5447 93.9886C75.8114 95.3219 71.8114 96.9219 68.6114 97.4553C61.5447 98.3886 61.9447 100.655 69.1447 100.655C74.2114 100.655 83.4114 95.7219 85.678 91.8553C86.2114 90.7886 88.2114 89.9886 90.078 89.9886C97.4114 89.9886 105.145 83.4553 107.945 74.9219C110.211 67.5886 108.611 55.8553 104.745 52.1219C103.011 50.5219 101.278 46.9219 100.878 43.9886C99.678 36.1219 94.3447 32.3886 78.878 28.2553C64.078 24.3886 54.878 23.3219 47.278 24.6553ZM61.278 28.6553C61.278 29.3219 59.9447 29.9886 58.2114 29.9886C54.078 29.9886 37.278 38.2553 33.9447 41.8553C32.2114 43.8553 31.4114 46.6553 31.5447 50.3886L31.678 55.9886L29.8114 51.9886C27.5447 46.7886 27.5447 45.3219 30.078 39.8553C32.2114 35.3219 38.478 30.6553 45.0114 28.6553C50.2114 27.0553 61.278 27.0553 61.278 28.6553ZM76.6114 33.1886C83.278 35.9886 85.278 40.9219 82.6114 47.8553L81.4114 51.3219L77.678 47.8553C72.6114 43.0553 65.8114 44.1219 55.9447 51.0553C46.478 57.7219 40.6114 58.6553 37.0114 53.8553C31.9447 47.0553 39.5447 39.4553 57.0114 33.8553C66.3447 30.9219 70.7447 30.7886 76.6114 33.1886ZM89.278 35.3219C95.0114 38.2553 97.278 41.4553 97.278 46.6553C97.278 50.2553 96.6114 50.7886 89.0114 51.7219L84.2114 52.3886L86.078 47.8553C88.2114 42.7886 87.5447 38.7886 84.2114 34.9219C81.5447 31.9886 82.878 31.9886 89.278 35.3219ZM76.078 51.1886C77.8114 52.6553 78.878 54.1219 78.478 54.6553C77.9447 55.0553 72.878 55.3219 67.1447 55.0553L56.6114 54.6553L61.9447 51.7219C68.6114 48.1219 72.078 47.9886 76.078 51.1886ZM104.345 56.6553C105.145 59.7219 104.745 59.8553 101.145 57.8553C99.678 57.1886 98.878 55.9886 99.278 55.1886C100.611 53.0553 103.545 53.8553 104.345 56.6553ZM65.278 60.6553C62.878 62.6553 60.3447 63.1886 55.9447 63.0553C44.6114 62.3886 51.1447 59.1886 65.9447 58.2553C68.3447 58.1219 68.3447 58.2553 65.278 60.6553ZM82.3447 59.5886C86.078 64.3886 85.4114 66.6553 78.7447 70.3886C75.0114 72.3886 69.8114 74.1219 67.0114 74.3886C62.3447 74.6553 61.9447 74.3886 61.5447 71.0553C61.1447 67.9886 61.678 67.3219 64.878 66.5219C66.878 65.9886 71.0114 63.8553 73.9447 61.8553C80.078 57.5886 80.478 57.4553 82.3447 59.5886ZM91.9447 59.1886C91.9447 59.8553 91.0114 61.0553 89.9447 61.9886C88.878 62.9219 87.9447 63.3219 87.9447 62.9219C87.9447 62.5219 87.5447 61.3219 87.1447 60.1219C86.6114 58.5219 87.1447 57.9886 89.1447 57.9886C90.7447 57.9886 91.9447 58.5219 91.9447 59.1886ZM100.878 61.3219C107.678 65.9886 105.145 77.4553 96.6114 81.5886C94.078 82.7886 91.678 83.5886 91.4114 83.1886C91.1447 82.9219 90.7447 79.3219 90.478 75.1886C90.2114 68.9219 90.7447 66.9219 93.4114 63.5886C97.1447 58.7886 97.1447 58.7886 100.878 61.3219ZM40.878 64.1219C42.878 64.6553 43.8114 66.1219 44.2114 69.4553C44.878 74.9219 44.078 75.0553 38.7447 70.5219C32.3447 65.1886 33.4114 62.1219 40.878 64.1219ZM57.278 69.9886C57.278 71.3219 57.678 73.3219 58.078 74.5219C58.7447 76.1219 57.9447 76.6553 54.878 76.6553C50.6114 76.6553 48.3447 74.7886 47.9447 70.6553C47.5447 66.5219 47.678 66.5219 52.6114 67.0553C56.078 67.4553 57.278 68.2553 57.278 69.9886ZM86.6114 76.6553C86.6114 84.3886 85.8114 84.6553 75.678 81.0553L69.4114 78.7886L77.678 74.6553C82.2114 72.2553 86.078 70.2553 86.3447 70.2553C86.478 70.1219 86.6114 72.9219 86.6114 76.6553ZM69.9447 82.6553C74.3447 84.3886 79.278 85.9886 81.0114 85.9886C82.6114 85.9886 83.9447 86.6553 83.9447 87.4553C83.9447 90.9219 59.4114 85.4553 55.8114 81.1886C53.278 78.1219 60.7447 78.7886 69.9447 82.6553Z" fill="#431D72"/>
<path d="M12.3448 97.5885C11.8114 98.9218 9.01144 104.122 6.21144 109.055C0.211439 119.589 0.744773 121.322 9.54477 120.789C19.9448 120.255 38.6114 113.322 38.6114 110.122C38.6114 107.455 36.4781 107.722 31.4114 110.655C26.2114 113.722 9.01144 118.522 6.47811 117.722C5.94477 117.455 8.07811 112.922 11.2781 107.455C14.6114 102.122 17.2781 97.1885 17.2781 96.5218C17.2781 94.3885 13.1448 95.3218 12.3448 97.5885Z" fill="#431D72"/>
</svg>
