<svg width="114" height="145" viewBox="0 0 114 145" fill="none" xmlns="http://www.w3.org/2000/svg">
<path d="M83.5033 11.8311C83.1033 12.7645 81.9033 16.2311 80.8366 19.4311C77.6366 28.6311 73.1033 33.6978 65.2366 36.6311C55.7699 40.0978 55.6366 42.4978 64.5699 45.2978C73.7699 48.2311 78.0366 52.4978 81.2366 61.9645C82.5699 66.0978 84.4366 69.5645 85.3699 69.5645C86.3033 69.5645 88.4366 65.8311 90.1699 61.1645C94.0366 50.4978 96.1699 48.2311 105.77 44.7645C110.037 43.1645 113.503 41.1645 113.503 40.0978C113.503 39.1645 110.57 37.4311 107.103 36.3645C98.4366 33.4311 92.9699 27.4311 90.1699 17.8311C88.0366 10.6311 84.9699 7.83112 83.5033 11.8311Z" fill="#431D72"/>
<path d="M20.1406 1.68752C19.8245 2.40721 18.8688 5.08333 18.0181 7.55402C15.4702 14.6559 11.9453 18.538 5.89076 20.7305C-1.39452 23.3199 -1.5221 25.1799 5.28824 27.4453C12.3013 29.8168 15.5229 33.1707 17.8726 40.5465C18.8496 43.7662 20.242 46.4745 20.9566 46.4843C21.6713 46.4941 23.3444 43.6209 24.7211 40.0197C27.7951 31.7873 29.4526 30.0517 36.84 27.4637C40.1239 26.2675 42.7995 24.7527 42.8108 23.9254C42.8207 23.2015 40.5931 21.8264 37.9501 20.9627C31.3454 18.5968 27.2234 13.8859 25.1814 6.41095C23.6245 0.804359 21.3061 -1.39945 20.1406 1.68752Z" fill="#431D72"/>
<path d="M37.3333 68.1644C33.7333 78.0311 27.4667 87.8977 22.6667 91.2311C20.5333 92.6977 15.0667 95.3644 10.4 97.0977C5.73333 98.8311 2 101.098 2 102.031C2 102.964 5.86667 104.964 10.6667 106.431C27.8667 111.898 31.4667 115.764 36.6667 133.764C40.2667 146.164 42.8 147.498 45.8667 138.431C47.0667 134.964 48 131.098 48 130.031C48 128.831 49.4667 124.831 51.2 120.964C54.8 113.364 61.4667 108.564 72.2667 105.898C78.8 104.164 82.1333 101.631 80.8 99.3644C80.2667 98.6977 76.8 97.3644 72.8 96.5644C58.8 93.6311 51.6 86.4311 46.4 69.8977C44.8 64.6977 42.8 60.5644 41.8667 60.5644C40.9333 60.5644 38.9333 64.0311 37.3333 68.1644Z" fill="#431D72"/>
</svg>
