<svg width="217" height="112" viewBox="0 0 217 112" fill="none" xmlns="http://www.w3.org/2000/svg">
<path d="M155.502 0.588692C154.631 0.951515 152.889 2.62054 151.728 4.21698C148.971 8.06297 143.456 19.3107 141.569 24.8983L140.19 29.2522L135.111 31.2115C128.507 33.8239 121.976 34.8398 111.745 34.8398C103.98 34.8398 86.0562 32.7354 79.743 30.9938C78.2917 30.631 76.5501 30.5584 75.897 30.7761C74.0828 31.5018 74.5182 33.8239 76.7678 34.9849C78.8722 36.0734 93.9659 38.6132 104.923 39.7743C116.244 40.9353 130.539 39.0486 138.449 35.2752C141.787 33.6062 141.932 33.3885 148.753 19.8186C152.527 12.2718 156.082 5.95856 156.663 5.74087C157.896 5.4506 157.388 9.51429 155.211 18.2222C154.413 21.3425 153.978 24.1726 154.196 24.5354C154.994 25.7691 162.976 25.3337 168.056 23.7372C170.813 22.8664 177.925 20.1089 183.875 17.5691C194.615 12.9249 200.275 11.2559 200.275 12.7798C200.275 13.8682 197.155 15.9001 189.753 19.6735C182.714 23.1567 177.997 27.2929 178.723 29.1796C180.029 32.4451 187.576 32.1548 196.429 28.5266C202.452 26.1319 206.806 25.4062 206.806 26.9301C206.806 28.5266 203.758 30.7761 199.332 32.4451C191.64 35.3477 188.664 37.0168 186.85 39.3389C184.528 42.4592 184.456 44.7087 186.778 45.2893C189.1 45.8698 197.372 44.5636 203.105 42.6769C207.967 41.0805 211.232 41.0079 211.74 42.5318C212.103 43.6928 208.475 45.2167 198.824 47.9016C194.615 49.0627 190.624 50.2238 189.898 50.4415C189.245 50.6592 188.447 51.6751 188.156 52.691C187.794 54.0697 188.156 54.868 189.463 55.9565C191.059 57.2626 191.93 57.3352 198.461 56.8998C202.452 56.6821 206.516 56.3919 207.531 56.2467C210.434 56.029 209.708 58.1334 206.588 59.1494C205.064 59.6573 198.388 60.7458 191.712 61.6166C185.036 62.4874 177.779 63.7936 175.602 64.5918C161.234 69.5989 145.56 70.8325 116.969 69.1635C86.6367 67.3493 75.4616 64.0838 71.9784 55.8839C70.6722 52.8361 66.6086 39.7017 63.5608 28.7443C61.5289 21.5602 57.4653 18.5125 52.8936 20.9071C49.3379 22.8664 48.2494 31.1389 50.3538 40.1371C50.9343 42.5318 51.2246 44.6362 51.0069 44.8539C50.0635 45.7972 43.46 37.0168 39.6141 29.6876C33.5911 18.0771 29.2371 13.7231 24.738 14.8842C22.4885 15.4647 20.8195 19.0204 21.4726 21.8505C21.908 24.1726 29.1646 39.3389 30.6159 41.0805C31.0513 41.5884 31.1964 42.1689 31.0513 42.3866C30.8336 42.6043 28.8743 40.5725 26.7699 37.815C24.5929 35.1301 20.8921 30.8487 18.4248 28.3814C14.8691 24.6806 13.5629 23.8098 11.7488 23.8098C8.41072 23.8098 6.30631 26.8575 6.88684 30.8487C7.32223 33.6062 7.1771 33.8964 5.29039 34.8398C1.2267 36.7991 0.573608 41.8061 3.62137 47.7565C4.85499 50.2238 12.1841 60.0927 18.4974 67.9298C23.4319 74.0254 20.9646 72.5741 13.9257 65.3175C7.53993 58.714 6.59658 57.9157 4.27447 57.9157C-0.87771 57.9157 -1.38567 61.3989 2.82315 67.8573C6.08861 72.9369 19.731 87.6678 24.5929 91.296C29.6 95.0695 37.8725 98.9155 45.7096 101.02C52.5308 102.834 55.9414 103.487 75.8244 106.898C81.412 107.841 87.7978 109.002 89.9748 109.438C100.061 111.469 136.635 111.614 149.116 109.728C167.33 107.043 180.537 100.73 186.27 92.1668C189.535 87.1598 193.599 76.7103 194.542 70.6873C194.978 68.2201 195.703 65.898 196.284 65.4626C196.864 65.0272 199.985 64.1564 203.25 63.4307C208.185 62.3423 209.708 61.6892 211.668 59.7299C214.425 56.9724 214.498 56.4644 212.756 54.2874C211.595 52.9087 210.797 52.691 206.37 52.7636C203.613 52.7636 200.202 53.1264 198.824 53.5618C195.776 54.4326 191.567 54.5051 191.567 53.7069C191.567 53.3441 194.107 52.5459 197.227 51.8202C204.992 50.0061 211.087 47.9016 213.482 46.2326C216.167 44.3459 216.82 41.5884 215.151 39.7743C213.192 37.5973 207.822 37.8876 198.243 40.5725C193.744 41.8787 189.898 42.6769 189.608 42.3866C188.809 41.5884 190.986 40.0645 195.558 38.323C203.468 35.2752 209.708 31.7195 210.87 29.5425C212.248 26.785 212.176 24.8257 210.434 23.0841C208.257 20.9071 204.048 21.27 195.413 24.2452C191.277 25.6239 187.503 26.7124 186.995 26.4947C186.56 26.3496 189.898 24.3903 194.542 22.2133C199.259 19.9638 203.468 17.4965 204.121 16.4806C206.008 13.8682 205.717 10.3851 203.468 8.6435C199.767 5.74087 195.558 6.75679 176.836 14.8116C166.314 19.3833 158.985 21.9231 158.332 21.27C158.114 21.1248 158.84 18.6576 159.928 15.8275C162.396 9.00633 162.468 4.07185 160.001 1.67718C158.114 -0.282104 157.896 -0.354668 155.502 0.588692ZM28.584 21.7779C29.6 22.7213 32.7929 27.3655 35.6229 32.1548C41.2831 41.661 43.0972 44.1282 46.9432 47.176C49.991 49.5707 54.7078 50.0061 55.4334 48.0468C55.7237 47.3937 55.2157 42.6769 54.3449 37.6699C52.821 28.0912 53.1113 24.5354 55.506 24.5354C57.3201 24.5354 58.5537 27.2929 62.9803 41.5884C67.6245 56.537 70.6722 63.4307 73.72 65.8254C80.1784 70.905 106.737 74.5333 137.505 74.6059C155.429 74.6059 162.25 73.7351 173.426 70.1794C182.714 67.2042 191.567 65.7529 191.567 67.2042C191.567 67.567 190.769 71.1953 189.898 75.1139C186.995 87.3049 183.73 92.1668 174.659 98.1898C169.87 101.383 164.572 103.197 153.978 105.229C146.141 106.753 143.528 106.898 121.178 106.898C104.561 106.898 95.6349 106.607 92.8774 105.954C85.0403 104.213 82.2102 103.777 70.0191 102.181C50.3538 99.7137 39.7592 96.6659 30.761 90.9332C24.6655 87.0147 3.40368 64.4467 4.6373 63.2131C4.85499 62.9228 7.90276 65.5352 11.4585 68.9458C14.9417 72.3564 18.4974 75.4767 19.4407 75.9846C22.9965 77.8714 25.6814 75.0413 24.5929 70.3971C24.0124 67.567 21.908 64.4467 16.1027 57.8432C10.7328 51.6025 6.52401 44.4185 6.52401 41.5159C6.52401 39.6291 6.88684 39.1212 8.41072 38.7583C9.49921 38.4681 10.37 38.323 10.4426 38.4681C19.8761 52.1105 24.2301 57.4803 27.5681 59.5848C33.2283 63.2131 29.1646 55.3034 19.5133 44.1282C12.4744 35.9283 8.91868 28.8894 11.8939 28.8894C12.4744 28.8894 15.4496 31.9371 18.4974 35.7106C21.4726 39.484 25.754 44.2008 28.0035 46.2326C32.6477 50.514 35.115 51.022 36.4212 48.0468C37.3645 45.9424 37.6548 46.5229 29.6 31.792C24.3027 22.2133 23.8673 17.6417 28.584 21.7779Z" fill="#431D72"/>
</svg>
