<svg width="143" height="130" viewBox="0 0 143 130" fill="none" xmlns="http://www.w3.org/2000/svg">
<path d="M48.3422 3.04473C37.6213 8.40517 30.6622 13.2954 23.3269 20.6307C7.43364 36.4299 0.0983145 55.5205 0.00427184 81.2882C-0.0897708 95.4887 1.32087 99.4385 9.03237 106.68C14.863 112.228 14.2047 111.57 19.283 117.213C27.6528 126.805 37.2452 129.25 67.715 129.25H89.4389L93.6708 125.959C104.015 118.153 112.009 105.269 116.523 89.3759C120.097 76.8682 119.533 68.4044 114.454 58.1537C107.401 43.6712 85.1129 31.8218 68.2793 33.4205C50.6933 35.1133 37.3392 48.4673 29.5337 72.1661C27.4647 78.467 27.4647 78.7491 29.0635 82.981C34.2358 96.6172 40.8188 106.116 47.4958 109.595C56.3358 114.109 77.2133 109.971 86.4295 101.884C91.7899 97.1814 93.4827 92.6674 93.4827 82.981C93.4827 75.4576 93.2946 74.6112 90.9435 71.7899C87.3699 67.6521 83.4201 66.2414 74.8622 66.2414C68.0912 66.2414 67.0567 66.5235 63.5771 69.0627C58.5929 72.6363 57.7465 74.4231 57.7465 80.724C57.7465 85.9904 57.7465 85.9904 60.5678 85.9904C62.9188 85.9904 63.389 85.6142 63.389 83.7333C63.389 80.2538 65.2699 75.6457 67.1507 74.7052C70.3482 73.0125 77.0252 73.5767 80.4108 75.9278C86.8057 80.2538 87.2759 84.2036 82.3857 91.5389C77.4954 98.8742 70.2542 102.542 58.875 103.576C52.1039 104.235 52.198 104.329 44.4865 93.2317C39.7843 86.4606 37.9975 81.4763 37.9975 74.9874C37.9975 70.4733 38.5618 69.0627 42.2294 63.3261C47.5899 54.9563 54.1729 47.9971 59.4392 44.8937C63.2009 42.6367 64.1414 42.5427 73.0754 42.9188C79.9405 43.201 83.8903 43.8593 86.9937 45.2699C95.2695 48.9376 102.511 57.4014 107.119 68.6865C109.658 74.7993 109.188 78.3729 104.204 93.3257C100.442 104.517 97.9967 108.843 92.4482 113.545C85.8652 119.281 79.8465 121.068 65.7401 121.444C45.9911 122.103 32.1669 117.965 21.1639 107.996C14.863 102.354 6.21109 89.4699 8.37407 88.9997C10.1609 88.6236 10.1609 85.8963 8.37407 81.5704C7.05747 78.467 7.15152 77.4325 9.3145 67.8401C10.5371 62.1976 12.2298 56.555 13.0762 55.3325C13.8285 54.2039 14.6749 51.3827 15.0511 49.1256C17.026 36.2418 27.9349 23.7341 47.6839 11.7907L55.4894 7.08857L75.4265 12.1669C86.3354 14.9882 96.6801 17.9975 98.3729 18.8439C100.066 19.6903 105.05 24.0163 109.47 28.5303C115.959 35.0192 118.31 38.2167 121.601 44.8937C126.774 55.6146 129.971 68.4044 131.288 83.6393L132.322 95.8648L128.843 102.73C123.106 114.109 123.106 114.203 126.68 114.203C132.604 114.203 140.316 105.551 141.821 97.2755C142.761 91.9151 140.692 70.8495 138.247 61.3512C134.579 46.8686 127.526 33.6086 119.438 25.8971C117.558 24.1103 116.053 21.8533 116.053 21.0069C116.053 18.8439 110.128 13.7656 105.144 11.6967C97.9967 8.59325 86.7116 5.30176 74.6742 2.95069C55.3014 -0.9991 56.3358 -0.9991 48.3422 3.04473ZM104.862 15.9286C109.282 17.8094 110.787 19.2201 112.573 22.6997C114.548 26.3673 114.548 27.3077 112.855 25.615C111.257 24.1103 103.545 17.5273 101.288 15.8345C99.0312 14.1418 101.006 14.2358 104.862 15.9286ZM125.645 40.3797C133.733 54.0159 137.118 67.9342 137.213 87.401C137.213 99.7206 137.024 100.755 135.05 103.576C131.664 108.373 130.912 107.244 133.639 101.225C135.896 96.241 135.99 95.3006 135.426 85.9904C134.203 66.2414 129.125 48.6554 121.225 36.618C118.874 33.1384 116.993 29.9409 116.993 29.6588C116.993 28.3422 122.542 35.2073 125.645 40.3797ZM77.9656 38.0286C78.3418 38.5929 76.1788 38.969 72.135 38.969C67.621 38.969 66.2103 38.6869 67.1507 38.0286C69.0316 36.8061 77.2133 36.8061 77.9656 38.0286ZM52.292 45.458C50.035 47.5269 46.4613 51.0065 44.3924 53.2635L40.6307 57.3074L43.546 53.0754C47.2137 47.621 49.1886 45.458 52.1039 43.4831C56.3358 40.5678 56.4299 41.6963 52.292 45.458ZM105.144 51.5708C111.351 58.2478 115.113 67.464 115.113 76.2099C115.113 81.5704 110.975 95.3946 107.025 103.576C103.451 110.724 95.4576 120.41 90.2852 123.513C87.2759 125.394 81.2571 126.241 81.2571 124.736C81.2571 124.36 83.8903 122.855 87.0878 121.35C93.8589 118.247 100.724 111.758 103.639 105.739C106.649 99.3444 111.445 83.3572 112.009 77.5265C112.385 73.2946 112.009 71.2257 109.94 66.2414C106.931 59.0001 103.075 53.1695 97.8087 47.5269L93.9529 43.4831L98.1848 46.0222C100.536 47.5269 103.639 49.972 105.144 51.5708ZM9.3145 54.0159C7.05747 58.3418 6.6813 57.0252 8.56215 51.1005C9.87875 46.8686 10.2549 46.3984 10.5371 48.5614C10.7251 49.972 10.1609 52.4171 9.3145 54.0159ZM86.9937 73.6708C89.1567 75.9278 90.6614 79.4074 89.4389 79.4074C89.2508 79.4074 87.2759 77.5265 85.0188 75.1755C81.9154 72.0721 81.2571 70.9435 82.5737 70.9435C83.5142 70.9435 85.4891 72.1661 86.9937 73.6708ZM34.2358 80.3478C34.2358 83.6393 38.0916 91.6329 42.6056 97.5576C47.2137 103.576 47.5899 105.269 43.546 101.413C39.9724 98.0278 33.2013 84.1095 32.6371 78.9372C32.3549 76.1159 32.449 75.5516 33.2013 76.5861C33.7656 77.3384 34.2358 79.0312 34.2358 80.3478ZM87.3699 94.4542C85.9593 97.1814 78.6239 103.388 77.6835 102.542C77.4954 102.26 78.812 100.755 80.6929 99.1563C82.4797 97.5576 84.9248 94.6423 86.1474 92.8555C88.5925 88.8116 89.6269 90.1282 87.3699 94.4542ZM35.9286 122.197C36.6809 122.949 33.7656 121.915 28.8754 119.752C26.7124 118.811 24.7375 117.589 24.3613 117.118C23.7971 116.178 34.706 120.974 35.9286 122.197Z" fill="#431D72"/>
</svg>
