<svg width="274" height="189" viewBox="0 0 274 189" fill="none" xmlns="http://www.w3.org/2000/svg">
<path d="M120.99 0.232788C111.257 0.89946 105.657 2.09946 97.2566 5.43279C85.9233 9.69946 69.79 19.6995 66.59 24.3661C65.6566 25.6995 63.1233 27.5661 61.1233 28.6328C56.7233 31.0328 46.3233 41.5661 41.39 48.7661C37.5233 54.4995 31.6566 72.8995 31.6566 79.4328C31.6566 81.6995 32.4566 84.7661 33.5233 86.0994C34.99 88.0994 34.99 89.4328 34.0566 91.4328C32.0566 95.0328 30.3233 96.0994 25.79 96.0994C19.6566 96.0994 4.3233 101.166 1.78996 103.966C-1.81004 107.833 0.456631 109.966 4.7233 106.766C9.25663 103.566 21.2566 100.633 34.7233 99.4328C44.7233 98.6328 46.7233 99.1661 43.5233 102.366C42.7233 103.166 42.3233 104.633 42.59 105.566C42.99 106.766 44.19 106.366 46.7233 103.833C48.59 101.966 50.4566 100.633 50.8566 101.033C52.19 102.499 61.1233 99.9661 60.59 98.3661C60.3233 97.4328 60.99 95.6995 62.19 94.2328C64.19 91.9661 64.0566 91.8328 60.99 92.2328C58.7233 92.6328 57.5233 93.6995 57.2566 95.6995C56.59 99.8328 51.9233 99.8328 52.19 95.8328C52.3233 91.6995 60.99 88.3661 65.6566 90.4995C69.9233 92.4995 69.9233 94.2328 65.6566 95.2995C61.1233 96.4995 61.2566 101.033 65.79 102.766C70.0566 104.499 76.59 101.299 78.3233 96.7661C79.2566 94.3661 80.59 93.4328 83.2566 93.4328C89.2566 93.4328 102.457 98.0994 104.857 101.033C106.057 102.499 108.057 104.099 109.39 104.499C112.723 105.699 112.323 108.499 108.857 107.433C105.523 106.366 91.6566 112.766 91.6566 115.433C91.6566 118.499 93.79 118.899 96.3233 116.099C99.2566 112.899 111.123 108.499 115.923 108.766C117.923 108.899 120.723 109.966 122.057 111.166C125.123 113.966 126.857 113.966 129.523 111.299C131.523 109.433 132.057 109.433 136.057 111.833C138.323 113.166 142.457 115.166 144.99 116.099C159.39 121.833 181.657 140.366 186.857 151.166C187.923 153.566 190.457 156.366 192.323 157.433C194.19 158.499 197.79 161.699 200.323 164.766C202.857 167.833 208.99 172.766 213.923 175.833C218.857 178.766 224.723 183.033 226.857 185.166C230.457 189.166 234.323 189.566 234.323 186.099C234.323 185.166 233.39 183.699 232.323 182.766C231.257 181.833 230.59 180.633 230.99 180.099C231.923 178.633 225.257 170.899 220.723 168.099L216.857 165.833L226.59 160.766C231.923 158.099 239.257 153.699 242.723 151.033C250.723 145.299 260.59 130.633 266.19 116.499C274.19 96.0994 274.99 84.6328 269.657 68.6328C261.923 45.6994 249.123 33.6995 223.123 25.2995C216.457 23.1661 207.657 19.4328 203.657 16.8995C193.79 10.8995 184.19 7.69946 178.59 8.76613C176.19 9.16612 173.39 9.03279 172.59 8.36612C169.923 6.36612 151.523 1.56613 142.323 0.499451C137.523 -0.0338745 127.923 -0.167206 120.99 0.232788ZM152.323 6.09946C157.79 7.29945 164.323 9.03279 166.857 10.0995C169.523 11.1661 174.857 12.0995 178.99 12.0995C186.59 12.0995 188.457 12.7661 204.323 21.2995C208.723 23.6995 216.99 27.2995 222.857 29.4328C237.523 34.8995 245.523 40.4995 253.123 50.4995C260.59 60.3661 266.323 76.3661 266.323 87.4328C266.323 97.4328 263.657 110.633 260.19 117.566C258.457 121.033 256.99 124.233 256.99 124.766C256.99 126.899 243.123 144.233 238.59 147.966C232.857 152.366 214.99 161.566 213.923 160.633C213.523 160.233 211.923 160.633 210.323 161.433C206.323 163.566 203.79 161.699 183.123 140.899C173.523 131.166 164.19 122.233 162.323 121.033C159.523 119.166 159.257 118.633 160.99 117.566C165.523 114.766 180.457 102.499 182.723 99.6995C184.057 98.0994 188.59 94.8995 192.723 92.7661C204.457 86.4995 203.257 83.0328 191.39 88.7661C188.057 90.3661 187.657 90.3661 187.657 88.0994C187.657 86.7661 188.323 85.1661 188.99 84.7661C189.79 84.3661 190.323 81.8328 190.323 79.2995C190.323 76.7661 190.857 74.7661 191.39 74.7661C191.923 74.7661 192.19 72.7661 191.923 70.3661C191.523 66.7661 192.057 65.4328 194.857 63.5661C199.123 60.7661 198.323 58.3661 193.657 60.0995C190.723 61.1661 190.19 60.7661 188.057 56.3661C186.723 53.6994 180.857 46.4995 174.99 40.3661C165.39 30.3661 163.39 29.0328 154.59 25.9661C149.123 24.0995 141.79 22.3661 138.057 22.0995C130.323 21.5661 128.857 20.7661 133.657 19.5661C135.523 19.0328 136.99 18.0995 136.99 17.4328C136.99 15.4328 131.523 15.8328 127.657 18.0995C125.79 19.1661 120.99 19.9661 116.99 20.0995C112.857 20.0995 108.857 20.7661 108.057 21.5661C107.123 22.4995 104.457 22.4995 98.8566 21.5661C89.1233 19.6995 88.99 19.6995 88.99 21.9661C88.99 22.8995 90.7233 24.6328 92.8566 25.6995L96.8566 27.5661L90.59 32.2328C87.1233 34.7661 84.19 37.8328 83.9233 39.1661C83.1233 43.1661 87.39 43.2995 93.1233 39.4328C96.19 37.5661 98.7233 36.0995 98.99 36.3661C100.057 37.4328 88.59 53.4328 81.9233 60.0995C74.0566 67.9661 69.5233 78.4995 71.1233 85.0328C71.9233 88.2328 71.9233 88.2328 64.0566 87.4328C56.4566 86.4995 55.9233 86.6328 51.39 90.6328C46.19 95.1661 40.4566 96.0994 38.99 92.4995C38.59 91.1661 38.8566 89.9661 39.5233 89.6995C40.3233 89.4328 40.99 88.0994 40.99 86.6328C40.99 84.8995 40.3233 84.3661 38.8566 85.0328C36.8566 85.6995 36.7233 84.8995 37.6566 77.9661C40.19 57.6994 49.1233 42.3661 65.39 30.3661C70.19 26.8995 74.4566 24.0995 74.99 24.0995C75.5233 24.0995 77.79 22.4995 80.0566 20.6328C88.0566 13.9661 105.657 6.6328 117.657 5.03279C127.257 3.69946 143.257 4.23279 152.323 6.09946ZM118.323 25.8328C118.323 24.4995 128.857 24.4995 131.657 25.8328C132.723 26.3661 135.523 27.0328 137.657 27.2995C139.923 27.5661 142.59 28.0995 143.657 28.3661C144.723 28.7661 149.123 30.2328 153.257 31.5661C157.523 32.8995 162.857 35.6995 165.257 37.8328C167.657 39.9661 168.99 41.4328 168.323 41.0328C167.523 40.6328 166.057 40.7661 164.99 41.5661C163.257 42.4995 163.39 42.7661 165.39 42.7661C166.59 42.7661 167.923 42.6328 168.19 42.3661C169.257 41.8328 175.657 48.6328 175.657 50.3661C175.657 51.4328 176.323 51.8328 176.99 51.4328C177.79 50.8995 178.323 52.0995 178.323 53.9661C178.323 55.8328 178.99 57.4328 179.79 57.4328C180.457 57.4328 180.723 56.6328 180.323 55.6994C179.79 54.8995 180.857 55.8328 182.59 57.9661C186.59 63.1661 187.39 68.6328 185.39 76.7661C184.457 80.3661 183.657 85.1661 183.657 87.4328C183.657 90.4995 182.19 92.8995 178.057 96.8995C171.923 102.766 166.457 106.766 164.59 106.766C163.923 106.766 163.923 105.966 164.723 105.033C166.723 102.633 165.79 96.4995 162.99 93.4328C161.657 91.9661 160.323 91.0328 159.923 91.2995C159.657 91.6995 158.457 91.0328 157.39 89.9661C155.923 88.4995 155.523 86.2328 156.057 81.8328C156.457 77.4328 156.057 73.9661 154.323 70.2328C152.99 67.1661 150.857 62.4995 149.657 59.6994C146.59 52.6328 144.457 53.2995 145.657 61.0328C146.723 68.2328 149.657 74.7661 151.79 74.7661C152.723 74.7661 152.457 76.0995 151.123 77.9661C149.79 80.0995 149.523 81.5661 150.323 82.0994C151.257 82.6328 151.257 83.8328 150.323 85.4328C148.323 89.1661 148.723 93.4328 150.99 93.4328C152.057 93.4328 152.99 94.0994 152.99 94.8995C152.99 95.5661 154.057 96.0994 155.39 95.9661C156.59 95.8328 158.457 95.8328 159.39 95.9661C162.057 96.2328 161.257 102.499 158.057 105.433C155.39 107.833 153.79 108.099 145.923 107.699C137.123 107.166 131.657 104.499 131.657 100.766C131.657 98.6328 124.99 92.4995 120.723 90.8995C116.59 89.2995 109.79 90.2328 105.523 92.8995C103.123 94.3661 101.39 94.2328 94.8566 92.4995C90.4566 91.4328 84.4566 90.7661 81.39 91.1661C75.79 91.6995 75.79 91.6995 74.99 86.7661C73.9233 80.0995 76.0566 72.2328 80.59 67.1661C84.3233 63.0328 84.3233 63.0328 87.5233 65.5661C91.2566 68.6328 99.6566 69.0328 99.6566 66.0995C99.6566 64.6328 98.19 64.0995 94.7233 64.0995C86.4566 64.0995 85.5233 62.4995 90.19 57.2995C92.4566 54.8995 94.3233 52.0995 94.3233 51.2995C94.3233 50.3661 95.39 49.9661 97.1233 50.3661C98.7233 50.7661 100.323 50.4995 100.857 49.8328C101.923 48.0995 120.057 36.0995 120.59 36.6328C121.79 37.8328 118.857 41.5661 114.19 44.8995C109.39 48.2328 107.257 52.0995 110.323 52.0995C111.39 52.0995 121.79 48.3661 130.723 44.7661C132.723 43.9661 132.99 44.6328 132.99 50.8995C132.99 58.0995 136.19 66.7661 139.257 67.6995C140.857 68.2328 141.523 66.4995 142.99 58.2328C143.79 53.6994 143.523 53.1661 141.923 54.4995C139.523 56.4995 138.323 55.2995 138.323 50.7661C138.323 45.1661 133.39 39.6995 128.99 40.3661C126.323 40.7661 125.523 40.4995 125.923 39.1661C126.323 38.2328 125.923 37.4328 124.99 37.4328C124.057 37.4328 123.657 36.6328 124.057 35.5661C125.657 31.5661 106.99 35.8328 104.323 40.0995C103.923 40.8995 102.857 41.4328 102.057 41.4328C101.123 41.4328 101.257 40.6328 102.323 39.4328C103.523 38.0995 103.523 37.4328 102.457 37.4328C101.657 37.4328 100.99 36.7661 100.99 35.9661C100.99 35.2995 101.523 34.8995 102.057 35.2995C102.59 35.5661 103.79 34.7661 104.723 33.2995C106.723 30.2328 106.857 30.2328 99.5233 32.7661L93.6566 34.7661L96.8566 32.0995C98.59 30.6328 100.99 29.4328 102.323 29.4328C105.923 29.4328 109.123 27.9661 108.19 26.6328C107.79 25.9661 108.323 25.8328 109.39 26.2328C110.457 26.6328 111.79 26.3661 112.323 25.5661C112.857 24.4995 113.923 24.4995 115.79 25.4328C117.123 26.2328 118.323 26.3661 118.323 25.8328ZM73.6566 94.7661C74.4566 96.0994 68.0566 100.899 66.8566 99.6995C66.0566 98.8995 70.3233 93.6995 71.9233 93.5661C72.4566 93.4328 73.1233 93.9661 73.6566 94.7661ZM126.457 98.3661C128.59 100.499 128.857 101.566 127.79 104.499C126.59 107.566 121.923 109.833 122.59 107.033C122.59 106.499 122.323 105.033 121.79 103.833C120.99 101.966 120.19 101.833 118.323 102.766C114.723 104.766 114.057 104.366 115.657 101.433C117.79 97.5661 116.19 95.9661 112.323 97.6995C108.59 99.4328 106.057 97.9661 108.99 95.9661C112.19 93.8328 123.523 95.4328 126.457 98.3661Z" fill="#431D72"/>
<path d="M118.323 72.4992C118.323 75.9659 121.79 78.8992 127.39 80.2326C133.123 81.4326 136.323 80.8992 134.99 78.8992C134.723 78.2326 131.923 77.4326 129.123 76.8992C125.657 76.3659 123.257 75.0326 122.323 73.4326C120.723 70.3659 118.323 69.8326 118.323 72.4992Z" fill="#431D72"/>
<path d="M95.6567 80.6328C95.6567 82.4994 99.1234 86.7661 100.457 86.7661C100.857 86.7661 102.323 86.0994 103.79 85.2994C106.99 83.6994 105.79 81.0328 102.323 82.0994C100.857 82.4994 99.6567 82.0994 99.1234 80.7661C98.1901 78.2328 95.6567 78.0994 95.6567 80.6328Z" fill="#431D72"/>
<path d="M112.323 116.766C110.19 118.5 108.99 119.966 109.923 120.1C112.323 120.1 120.99 115.833 120.99 114.5C120.99 112.366 116.19 113.566 112.323 116.766Z" fill="#431D72"/>
<path d="M124.59 126.233C123.523 127.433 131.39 142.766 132.99 142.766C135.123 142.766 134.59 140.499 130.99 133.433C127.656 126.766 125.923 124.899 124.59 126.233Z" fill="#431D72"/>
<path d="M234.857 177.833C233.79 180.766 236.324 183.966 238.324 181.966C239.257 181.033 238.99 179.699 237.79 177.966C235.924 175.566 235.79 175.566 234.857 177.833Z" fill="#431D72"/>
</svg>
