<svg width="145" height="101" viewBox="0 0 145 101" fill="none" xmlns="http://www.w3.org/2000/svg">
<path d="M65.7529 0.282791C65.3529 0.682793 62.1529 1.08279 58.6862 1.21613C50.4196 1.34946 38.6862 6.94946 34.0196 13.0828C32.1529 15.4828 30.5529 17.8828 30.5529 18.4161C30.5529 18.8161 29.3529 20.8161 27.7529 22.9495C26.2862 24.9495 23.6196 30.5495 21.8862 35.2161C19.3529 42.4161 18.4196 43.7495 15.6196 43.7495C10.2862 43.8828 4.68622 48.9495 2.15289 56.0161C-0.647113 63.7495 -0.647113 69.3495 1.75289 79.0828C7.35289 100.816 7.75289 101.749 11.7529 99.2161C13.3529 98.1495 13.3529 97.3495 11.7529 93.4828C9.61955 88.2828 9.35289 87.3495 7.75289 77.3495C7.08622 72.9495 6.28622 69.0828 6.01955 68.5495C5.61955 68.0161 6.01955 64.9495 6.68622 61.6161C8.01955 55.7495 12.2862 49.7495 15.2196 49.7495C16.6862 49.7495 19.8862 63.3495 19.8862 69.2161C19.8862 70.5495 20.9529 72.8161 22.2862 74.2828C23.6196 75.8828 25.8862 79.8828 27.0862 83.3495C29.4862 90.0161 33.2196 92.0161 33.2196 86.6828C33.2196 84.9495 32.6862 83.0828 31.8862 82.2828C31.2196 81.6161 28.8196 76.2828 26.8196 70.6828C23.4862 61.6161 23.2196 59.3495 24.0196 52.0161C24.5529 47.4828 26.5529 40.2828 28.4196 36.0161C30.2862 31.7495 31.8862 27.6161 31.8862 26.6828C31.8862 23.7495 39.7529 15.4828 46.1529 11.6161C52.1529 8.01613 53.3529 7.74946 68.0196 7.74946C83.3529 7.74946 83.7529 7.88279 93.3529 12.8161C104.02 18.1495 113.753 27.7495 115.353 34.5495C115.886 36.6828 116.686 38.9495 117.22 39.7495C122.153 46.5495 121.353 62.0161 115.22 74.4161C111.22 82.8161 111.086 84.4161 114.686 84.4161C119.62 84.4161 124.02 71.7495 127.353 48.6828C128.153 43.7495 129.486 43.3495 133.086 46.9495C138.686 52.5495 140.153 78.6828 135.22 82.2828C133.353 83.6161 133.353 84.0161 135.22 86.8161C139.486 92.6828 142.953 85.7495 144.553 68.2828C145.086 61.4828 143.486 52.6828 140.42 46.2828C138.153 41.4828 130.553 37.0828 126.686 38.4161C124.82 38.9495 123.62 37.7495 121.086 32.8161C119.353 29.4828 116.286 24.6828 114.42 22.2828C108.686 15.0828 96.2862 5.74946 89.6196 3.61613C82.5529 1.34946 66.9529 -0.783875 65.7529 0.282791Z" fill="#431D72"/>
<path d="M84.5529 28.0161C76.4196 30.0161 70.1529 44.1495 75.0863 49.6161C76.2863 50.9495 77.2196 52.5495 77.2196 53.3495C77.2196 54.1495 79.2196 56.2828 81.6196 58.1495C84.9529 60.6828 86.5529 61.2161 88.2863 60.2828C91.7529 58.2828 91.0863 56.6828 86.0196 54.5495C82.8196 53.2161 81.0863 51.3495 79.8863 47.8828C77.7529 41.4828 78.9529 38.6828 85.3529 35.3495C91.2196 32.1495 96.0196 32.4161 100.286 36.1495C104.686 40.0161 101.753 49.2161 96.4196 48.1495C92.6863 47.4828 93.0863 43.6161 96.9529 44.1495C101.486 44.8161 100.286 40.1495 95.6196 38.5495C91.2196 36.9495 85.2196 40.4161 85.2196 44.5495C85.2196 48.9495 92.2863 55.0828 97.4863 55.0828C103.22 55.0828 104.553 54.1495 106.82 48.4161C110.286 40.1495 107.353 30.9495 100.42 28.4161C96.9529 27.0828 89.3529 26.9495 84.5529 28.0161Z" fill="#431D72"/>
<path d="M41.2191 33.3496C39.3524 33.7496 35.6191 36.5496 32.9524 39.6162C27.0857 46.0162 26.4191 52.2829 30.5524 61.3496C33.0857 67.0829 34.9524 68.1496 38.4191 65.8829C40.0191 64.8162 39.8857 64.1496 37.2191 62.0162C30.8191 56.8162 34.9524 40.4162 42.6857 40.4162C43.8857 40.4162 45.2191 39.7496 45.4857 38.9496C46.2857 36.5496 56.2857 39.8829 58.2857 43.2162C60.4191 46.6829 59.3524 52.6829 55.7524 55.8829C53.3524 58.0162 52.9524 58.0162 51.0857 56.1496C48.4191 53.4829 49.8857 50.6829 53.3524 51.7496C56.6857 52.8162 58.2857 48.9496 55.4857 46.1496C53.4857 44.0162 49.2191 44.4162 45.3524 46.9496C42.4191 48.9496 43.0857 56.0162 46.5524 59.7496C56.2857 70.0162 69.0857 55.7496 63.7524 40.5496C61.3524 33.6162 53.3524 31.0829 41.2191 33.3496Z" fill="#431D72"/>
<path d="M64.0194 65.6161C56.2861 68.1494 50.5527 74.1494 50.5527 79.7494C50.5527 84.1494 55.3527 90.6828 59.7527 92.1494C63.3527 93.4828 64.2861 93.2161 67.8861 90.1494C72.0194 86.6828 76.4194 86.4161 85.8861 89.2161C90.1527 90.2828 95.8861 83.8828 95.8861 78.0161C95.8861 74.4161 94.8194 72.4161 91.3527 69.0828C84.4194 62.5494 76.4194 61.6161 64.0194 65.6161ZM85.2194 69.4828C90.5527 72.1494 93.3527 77.8828 90.9527 81.4828C89.7527 83.3494 87.8861 83.6161 80.0194 83.2161C72.9527 82.9494 69.6194 83.3494 67.2194 84.9494C63.6194 87.2161 59.8861 87.7494 59.8861 85.8828C59.8861 85.2161 58.6861 84.4161 57.2194 84.0161C51.2194 82.4161 55.6194 73.6161 64.4194 69.6161C71.3527 66.5494 79.2194 66.4161 85.2194 69.4828Z" fill="#431D72"/>
</svg>
