<svg width="32" height="32" viewBox="0 0 32 32" fill="none" xmlns="http://www.w3.org/2000/svg">
<rect width="32" height="32" rx="6.4" fill="#642CA9"/>
<path d="M18.1233 11.4047V11.5173C18.1108 12.7121 17.9857 13.6629 17.748 14.3697C17.5103 15.0766 17.1725 15.649 16.7346 16.0869C16.2967 16.5247 15.7713 16.9282 15.1582 17.2973C14.7892 17.5225 14.4576 17.7883 14.1636 18.0948C13.8696 18.4076 13.6382 18.7673 13.4693 19.1739C13.2941 19.5805 13.2065 20.0309 13.2065 20.5251C13.2065 21.1381 13.3504 21.6698 13.6382 22.1202C13.9259 22.5706 14.3106 22.9178 14.7923 23.1617C15.2739 23.4057 15.8088 23.5277 16.3968 23.5277C16.9097 23.5277 17.4039 23.4213 17.8793 23.2086C18.3547 22.996 18.752 22.6613 19.071 22.2046C19.39 21.748 19.5745 21.1506 19.6246 20.4125H21.9891C21.9391 21.4759 21.6638 22.3861 21.1634 23.143C20.6567 23.8999 19.9905 24.4785 19.1648 24.8788C18.3328 25.2792 17.4102 25.4794 16.3968 25.4794C15.2958 25.4794 14.3388 25.2604 13.5256 24.8225C12.7061 24.3847 12.0743 23.7841 11.6302 23.021C11.1798 22.2578 10.9546 21.3883 10.9546 20.4125C10.9546 19.7244 11.0609 19.102 11.2736 18.5452C11.48 17.9885 11.7803 17.4912 12.1744 17.0533C12.5622 16.6154 13.0314 16.2276 13.5819 15.8898C14.1323 15.5458 14.5733 15.1829 14.9049 14.8014C15.2364 14.426 15.4772 13.9788 15.6274 13.4596C15.7775 12.9404 15.8588 12.2929 15.8713 11.5173V11.4047H18.1233ZM16.9222 5.84987C17.3851 5.84987 17.7824 6.01564 18.1139 6.34718C18.4454 6.67871 18.6112 7.07593 18.6112 7.53883C18.6112 8.00173 18.4454 8.39895 18.1139 8.73049C17.7824 9.06202 17.3851 9.22779 16.9222 9.22779C16.4593 9.22779 16.0621 9.06202 15.7306 8.73049C15.3991 8.39895 15.2333 8.00173 15.2333 7.53883C15.2333 7.23232 15.3115 6.95082 15.4679 6.69435C15.618 6.43788 15.8213 6.23145 16.0778 6.07506C16.328 5.92494 16.6095 5.84987 16.9222 5.84987Z" fill="#FFE0FF"/>
</svg>
