<svg width="96" height="96" viewBox="0 0 96 96" fill="none" xmlns="http://www.w3.org/2000/svg">
<g clip-path="url(#clip0_151_40)">
<rect width="96" height="96" rx="22" fill="#642CA9"/>
<path d="M52.0377 38.1494V38.4233C52.0073 41.3302 51.7029 43.6435 51.1246 45.3632C50.5463 47.083 49.7244 48.4756 48.6591 49.5409C47.5937 50.6062 46.3153 51.5879 44.8239 52.4858C43.9259 53.0337 43.1193 53.6805 42.404 54.4262C41.6887 55.1872 41.1256 56.0623 40.7147 57.0515C40.2886 58.0408 40.0755 59.1366 40.0755 60.3389C40.0755 61.8304 40.4255 63.124 41.1256 64.2198C41.8257 65.3155 42.7617 66.1602 43.9335 66.7538C45.1054 67.3473 46.4067 67.6441 47.8373 67.6441C49.0852 67.6441 50.2875 67.3854 51.4442 66.8679C52.6009 66.3505 53.5673 65.5362 54.3434 64.4252C55.1196 63.3142 55.5686 61.8608 55.6903 60.0649H61.4432C61.3214 62.6522 60.6518 64.8666 59.4343 66.7081C58.2015 68.5496 56.5807 69.9574 54.5717 70.9314C52.5476 71.9054 50.3028 72.3925 47.8373 72.3925C45.1587 72.3925 42.8302 71.8598 40.8517 70.7944C38.858 69.7291 37.3208 68.2681 36.2403 66.4113C35.1445 64.5546 34.5966 62.4391 34.5966 60.0649C34.5966 58.3908 34.8553 56.8765 35.3728 55.522C35.875 54.1675 36.6055 52.9576 37.5643 51.8923C38.5079 50.8269 39.6493 49.8833 40.9886 49.0615C42.3279 48.2244 43.4009 47.3417 44.2075 46.4134C45.0141 45.5002 45.6 44.412 45.9653 43.1488C46.3306 41.8857 46.5284 40.3105 46.5588 38.4233V38.1494H52.0377ZM49.1157 24.6347C50.2419 24.6347 51.2083 25.038 52.0149 25.8447C52.8215 26.6513 53.2248 27.6177 53.2248 28.7439C53.2248 29.8701 52.8215 30.8365 52.0149 31.6432C51.2083 32.4498 50.2419 32.8531 49.1157 32.8531C47.9894 32.8531 47.023 32.4498 46.2164 31.6432C45.4098 30.8365 45.0065 29.8701 45.0065 28.7439C45.0065 27.9982 45.1967 27.3133 45.5772 26.6893C45.9425 26.0653 46.4371 25.5631 47.0611 25.1826C47.6698 24.8174 48.3547 24.6347 49.1157 24.6347Z" fill="#FFE3FF"/>
</g>
<defs>
<clipPath id="clip0_151_40">
<rect width="96" height="96" rx="7" fill="white"/>
</clipPath>
</defs>
</svg>
