<svg width="305" height="45" viewBox="0 0 305 45" fill="none" xmlns="http://www.w3.org/2000/svg">
<path d="M152.034 0L156.975 15.2064H172.964L160.029 24.6045L164.97 39.8109L152.034 30.4128L139.099 39.8109L144.04 24.6045L131.104 15.2064H147.093L152.034 0Z" fill="#642CA9"/>
<path d="M87.0206 0L91.9615 15.2064H107.95L95.0151 24.6045L99.956 39.8109L87.0206 30.4128L74.0853 39.8109L79.0261 24.6045L66.0908 15.2064H82.0797L87.0206 0Z" fill="#642CA9"/>
<path d="M217.048 0L221.989 15.2064H237.978L225.042 24.6045L229.983 39.8109L217.048 30.4128L204.113 39.8109L209.053 24.6045L196.118 15.2064H212.107L217.048 0Z" fill="#642CA9"/>
<path d="M282.062 0L287.002 15.2064H302.991L290.056 24.6045L294.997 39.8109L282.062 30.4128L269.126 39.8109L274.067 24.6045L261.132 15.2064H277.121L282.062 0Z" fill="#642CA9"/>
<path d="M22.0069 0L26.9478 15.2064H42.9368L30.0014 24.6045L34.9423 39.8109L22.0069 30.4128L9.07158 39.8109L14.0124 24.6045L1.0771 15.2064H17.0661L22.0069 0Z" fill="#642CA9"/>
</svg>
