<svg width="207" height="30" viewBox="0 0 207 30" fill="none" xmlns="http://www.w3.org/2000/svg">
<path d="M23.2165 20.3657C23.2165 22.121 22.7648 23.6826 21.8613 25.0507C20.9579 26.3929 19.6673 27.4513 17.9895 28.2256C16.3375 29 14.337 29.3872 11.9881 29.3872C9.66498 29.3872 7.6387 29 5.90927 28.2256C4.20565 27.4254 2.86341 26.3026 1.88253 24.8571C0.901663 23.4116 0.33379 21.708 0.178915 19.7463H6.14158C6.21902 21.295 6.73527 22.5211 7.69033 23.4245C8.6712 24.328 10.0651 24.7797 11.8719 24.7797C12.8786 24.7797 13.7562 24.6377 14.5048 24.3538C15.2792 24.0698 15.8858 23.6568 16.3246 23.1148C16.7634 22.5727 16.9828 21.9403 16.9828 21.2176C16.9828 20.3399 16.6601 19.643 16.0148 19.1268C15.3695 18.5847 14.4532 18.1975 13.2658 17.9652L8.69701 17.0747C7.6387 16.894 6.65783 16.5971 5.7544 16.1841C4.85096 15.7711 4.06368 15.2549 3.39256 14.6354C2.72144 14.0159 2.19228 13.2673 1.8051 12.3897C1.41791 11.5121 1.22432 10.5054 1.22432 9.36966C1.22432 7.71767 1.66313 6.24636 2.54075 4.95574C3.44419 3.66512 4.67027 2.65844 6.21902 1.93569C7.79358 1.21294 9.58754 0.851566 11.6009 0.851566C13.6917 0.851566 15.5502 1.23875 17.1764 2.01313C18.8026 2.7875 20.119 3.88452 21.1257 5.30421C22.1324 6.69808 22.6873 8.36298 22.7906 10.2989H16.8279C16.7763 9.31804 16.5182 8.46623 16.0535 7.74348C15.6147 6.99492 15.0211 6.42705 14.2725 6.03986C13.5239 5.62686 12.6592 5.42036 11.6783 5.42036C10.7233 5.42036 9.91019 5.58814 9.23907 5.92371C8.59376 6.23345 8.09042 6.65936 7.72905 7.20142C7.36767 7.71767 7.18698 8.31135 7.18698 8.98248C7.18698 9.60197 7.35477 10.1182 7.69033 10.5312C8.0517 10.9442 8.51632 11.2798 9.0842 11.5379C9.65207 11.7702 10.2716 11.9509 10.9427 12.08L15.7051 13.0479C18.1573 13.5384 20.0158 14.3773 21.2806 15.5646C22.5712 16.7262 23.2165 18.3266 23.2165 20.3657ZM39.3836 29.5808C37.3703 29.5808 35.4989 29.2194 33.7694 28.4967C32.0658 27.7739 30.5687 26.7672 29.2781 25.4766C27.9875 24.1602 26.9808 22.6243 26.258 20.8691C25.5353 19.088 25.1739 17.1521 25.1739 15.0613C25.1739 12.9705 25.5353 11.0475 26.258 9.29223C26.9808 7.53698 27.9875 6.01405 29.2781 4.72343C30.5687 3.43281 32.0658 2.42612 33.7694 1.70338C35.4989 0.980629 37.3703 0.619255 39.3836 0.619255C41.397 0.619255 43.2684 0.980629 44.9978 1.70338C46.7273 2.42612 48.2373 3.43281 49.5279 4.72343C50.8443 6.01405 51.8639 7.53698 52.5867 9.29223C53.3094 11.0475 53.6708 12.9705 53.6708 15.0613C53.6708 17.1521 53.3094 19.088 52.5867 20.8691C51.8639 22.6243 50.8443 24.1602 49.5279 25.4766C48.2373 26.7672 46.7273 27.7739 44.9978 28.4967C43.2684 29.2194 41.397 29.5808 39.3836 29.5808ZM39.3836 24.315C40.6484 24.315 41.7842 24.0827 42.7909 23.6181C43.8234 23.1277 44.6881 22.4566 45.385 21.6047C46.1078 20.7529 46.6498 19.7721 47.0112 18.6621C47.3984 17.5264 47.592 16.3261 47.592 15.0613C47.592 13.7965 47.3984 12.6091 47.0112 11.4992C46.6498 10.3893 46.1078 9.42129 45.385 8.59529C44.6881 7.74348 43.8234 7.08527 42.7909 6.62064C41.7842 6.13021 40.6484 5.88499 39.3836 5.88499C38.1188 5.88499 36.9831 6.13021 35.9764 6.62064C34.9697 7.08527 34.105 7.74348 33.3822 8.59529C32.6853 9.42129 32.1432 10.3893 31.7561 11.4992C31.3947 12.6091 31.214 13.7965 31.214 15.0613C31.214 16.3261 31.3947 17.5264 31.7561 18.6621C32.1432 19.7721 32.6853 20.7529 33.3822 21.6047C34.105 22.4566 34.9697 23.1277 35.9764 23.6181C36.9831 24.0827 38.1188 24.315 39.3836 24.315ZM75.695 29H57.7296V1.20003H63.6148V23.6955H75.695V29ZM90.0128 29.5808C87.9994 29.5808 86.128 29.2194 84.3986 28.4967C82.6949 27.7739 81.1978 26.7672 79.9072 25.4766C78.6166 24.1602 77.6099 22.6243 76.8871 20.8691C76.1644 19.088 75.803 17.1521 75.803 15.0613C75.803 12.9705 76.1644 11.0475 76.8871 9.29223C77.6099 7.53698 78.6166 6.01405 79.9072 4.72343C81.1978 3.43281 82.6949 2.42612 84.3986 1.70338C86.128 0.980629 87.9994 0.619255 90.0128 0.619255C92.0261 0.619255 93.8975 0.980629 95.627 1.70338C97.3564 2.42612 98.8664 3.43281 100.157 4.72343C101.473 6.01405 102.493 7.53698 103.216 9.29223C103.939 11.0475 104.3 12.9705 104.3 15.0613C104.3 17.1521 103.939 19.088 103.216 20.8691C102.493 22.6243 101.473 24.1602 100.157 25.4766C98.8664 26.7672 97.3564 27.7739 95.627 28.4967C93.8975 29.2194 92.0261 29.5808 90.0128 29.5808ZM90.0128 24.315C91.2776 24.315 92.4133 24.0827 93.42 23.6181C94.4525 23.1277 95.3172 22.4566 96.0141 21.6047C96.7369 20.7529 97.2789 19.7721 97.6403 18.6621C98.0275 17.5264 98.2211 16.3261 98.2211 15.0613C98.2211 13.7965 98.0275 12.6091 97.6403 11.4992C97.2789 10.3893 96.7369 9.42129 96.0141 8.59529C95.3172 7.74348 94.4525 7.08527 93.42 6.62064C92.4133 6.13021 91.2776 5.88499 90.0128 5.88499C88.7479 5.88499 87.6122 6.13021 86.6055 6.62064C85.5988 7.08527 84.7341 7.74348 84.0114 8.59529C83.3144 9.42129 82.7724 10.3893 82.3852 11.4992C82.0238 12.6091 81.8431 13.7965 81.8431 15.0613C81.8431 16.3261 82.0238 17.5264 82.3852 18.6621C82.7724 19.7721 83.3144 20.7529 84.0114 21.6047C84.7341 22.4566 85.5988 23.1277 86.6055 23.6181C87.6122 24.0827 88.7479 24.315 90.0128 24.315ZM118.619 19.9398H114.244V29H108.359V1.20003H118.619C120.891 1.20003 122.839 1.5485 124.466 2.24544C126.118 2.94237 127.382 3.97487 128.26 5.34293C129.164 6.71098 129.615 8.4146 129.615 10.4538C129.615 12.4672 129.164 14.1837 128.26 15.6034C127.382 17.023 126.118 18.1072 124.466 18.8557C122.839 19.5785 120.891 19.9398 118.619 19.9398ZM118.58 6.15602H114.244V14.9839H118.58C120.232 14.9839 121.51 14.5838 122.414 13.7836C123.317 12.9576 123.769 11.8606 123.769 10.4925C123.769 9.12444 123.317 8.06614 122.414 7.31758C121.51 6.5432 120.232 6.15602 118.58 6.15602ZM136.683 18.3524H148.995L150.544 23.0373H134.979L136.683 18.3524ZM150.273 29L142.839 7.62732L135.25 29H129.326L139.78 1.20003H146.208L156.584 29H150.273ZM170.018 29H164.132V6.50448H155.382V1.20003H178.807V6.50448H170.018V29ZM188.203 29H182.317V1.20003H188.203V12.1574H200.244V1.20003H206.129V29H200.244V17.2295H188.203V29Z" fill="#FFE3FF"/>
</svg>
